<svg xmlns="http://www.w3.org/2000/svg" width="26" height="27" viewBox="0 0 26 27" fill="none">
  <rect x="1.3667" y="1" width="23.2667" height="25" stroke="black"/>
  <path d="M22.4371 3.1H21.0889V0.5H18.3926V3.1H7.60744V0.5H4.91114V3.1H3.563C2.06655 3.1 0.880181 4.27 0.880181 5.7L0.866699 23.9C0.866699 25.33 2.06655 26.5 3.563 26.5H22.4371C23.92 26.5 25.1334 25.33 25.1334 23.9V5.7C25.1334 4.27 23.92 3.1 22.4371 3.1ZM22.4371 23.9H3.563V10.9H22.4371V23.9ZM8.95559 16.1H6.25929V13.5H8.95559V16.1ZM14.3482 16.1H11.6519V13.5H14.3482V16.1ZM19.7408 16.1H17.0445V13.5H19.7408V16.1ZM8.95559 21.3H6.25929V18.7H8.95559V21.3ZM14.3482 21.3H11.6519V18.7H14.3482V21.3ZM19.7408 21.3H17.0445V18.7H19.7408V21.3Z" fill="white"/>
</svg>
