<svg width="25" height="27" viewBox="0 0 25 27" fill="none" xmlns="http://www.w3.org/2000/svg">
<g id="Events">
<path id="Vector" d="M22.3036 3.1H20.9555V0.5H18.2592V3.1H7.47402V0.5H4.77772V3.1H3.42957C1.93313 3.1 0.746758 4.27 0.746758 5.7L0.733276 23.9C0.733276 25.33 1.93313 26.5 3.42957 26.5H22.3036C23.7866 26.5 24.9999 25.33 24.9999 23.9V5.7C24.9999 4.27 23.7866 3.1 22.3036 3.1ZM22.3036 23.9H3.42957V10.9H22.3036V23.9ZM8.82216 16.1H6.12587V13.5H8.82216V16.1ZM14.2148 16.1H11.5185V13.5H14.2148V16.1ZM19.6073 16.1H16.9111V13.5H19.6073V16.1ZM8.82216 21.3H6.12587V18.7H8.82216V21.3ZM14.2148 21.3H11.5185V18.7H14.2148V21.3ZM19.6073 21.3H16.9111V18.7H19.6073V21.3Z" fill="#DDDDDD"/>
</g>
</svg>
