<svg xmlns="http://www.w3.org/2000/svg" width="22" height="25" viewBox="0 0 22 25" fill="none">
  <path d="M2.94292 24.25C2.20434 24.25 1.57231 23.9872 1.0468 23.4617C0.520402 22.9353 0.257202 22.3029 0.257202 21.5643V9.47857C0.257202 9.05333 0.352545 8.65048 0.54323 8.27C0.733021 7.88952 0.995774 7.57619 1.33149 7.33L9.38863 1.28714C9.63482 1.1081 9.8922 0.973809 10.1608 0.884286C10.4293 0.794762 10.7091 0.75 11.0001 0.75C11.291 0.75 11.5708 0.794762 11.8393 0.884286C12.1079 0.973809 12.3653 1.1081 12.6115 1.28714L20.6686 7.33C21.0043 7.57619 21.2675 7.88952 21.4582 8.27C21.648 8.65048 21.7429 9.05333 21.7429 9.47857V21.5643C21.7429 22.3029 21.4802 22.9353 20.9547 23.4617C20.4283 23.9872 19.7958 24.25 19.0572 24.25H13.6858V14.85H8.31434V24.25H2.94292Z" fill="white"/>
</svg>
