<svg xmlns="http://www.w3.org/2000/svg" width="20" height="29" viewBox="0 0 20 29" fill="none">
  <path d="M2.48059 16.9331L2.48045 16.9328C1.24813 14.9422 0.572651 12.738 0.572651 10.3862C0.572651 5.17415 4.78792 0.958882 9.99999 0.958882C15.2121 0.958882 19.4273 5.17415 19.4273 10.3862C19.4273 12.738 18.7519 14.9418 17.5063 16.9321L17.5054 16.9335C16.8596 17.9872 16.1109 18.9642 15.3544 19.9454C15.3331 19.9731 15.3117 20.0007 15.2904 20.0284C14.5566 20.98 13.8179 21.938 13.1732 22.9655L13.1732 22.9655C12.5222 24.0043 12.0658 24.9731 11.5581 26.0844L11.558 26.0847C11.4974 26.2181 11.4374 26.3705 11.3767 26.5249C11.3497 26.5937 11.3225 26.6629 11.295 26.731C11.2037 26.9572 11.1056 27.1808 10.9875 27.3791C10.7518 27.7745 10.455 28.041 9.99999 28.041C9.54492 28.041 9.24807 27.7745 9.01054 27.3786C8.89144 27.1801 8.79211 26.9564 8.69872 26.7298C8.67363 26.6689 8.64875 26.6073 8.62396 26.5459C8.55875 26.3843 8.49419 26.2243 8.42805 26.0842C7.93326 24.971 7.46348 24.0034 6.81331 22.9659C6.15765 21.9141 5.4048 20.9376 4.6586 19.9698L4.63188 19.9352C3.87519 18.9537 3.1265 17.9801 2.48059 16.9331ZM6.40046 10.729C6.40046 12.716 8.013 14.3286 9.99999 14.3286C11.987 14.3286 13.5995 12.716 13.5995 10.729C13.5995 8.74204 11.987 7.1295 9.99999 7.1295C8.013 7.1295 6.40046 8.74204 6.40046 10.729Z" fill="white" stroke="black" stroke-width="0.342812"/>
</svg>
