<svg width="23" height="21" viewBox="0 0 23 21" fill="none" xmlns="http://www.w3.org/2000/svg">
<path id="Vector" d="M10.2606 0.397864C10.6069 0.140977 11.0461 0 11.5 0C11.9539 0 12.3931 0.140977 12.7394 0.397864L22.3228 7.51853C22.535 7.67609 22.7055 7.87222 22.8224 8.0933C22.9394 8.31437 23 8.5551 23 8.79875V19.3214C23 19.7666 22.7981 20.1935 22.4386 20.5083C22.0792 20.8231 21.5917 21 21.0833 21H13.7361C13.4819 21 13.2382 20.9116 13.0585 20.7542C12.8787 20.5968 12.7778 20.3833 12.7778 20.1607V13.1665H10.2222V20.1607C10.2222 20.3833 10.1213 20.5968 9.94153 20.7542C9.76181 20.9116 9.51805 21 9.26389 21H1.91667C1.40834 21 0.920823 20.8231 0.561379 20.5083C0.201934 20.1935 0 19.7666 0 19.3214V8.79875C0 8.30635 0.247889 7.83746 0.677222 7.51853L10.2606 0.397864ZM11.5 1.67808L1.91667 8.79875V19.3214H8.30556V12.3272C8.30556 12.1046 8.40652 11.8911 8.58625 11.7337C8.76597 11.5763 9.00972 11.4879 9.26389 11.4879H13.7361C13.9903 11.4879 14.234 11.5763 14.4138 11.7337C14.5935 11.8911 14.6944 12.1046 14.6944 12.3272V19.3214H21.0833V8.79875L11.5 1.67808Z" fill="#DDDDDD"/>
</svg>
